<?xml version="1.0" standalone="no"?>
<!DOCTYPE svg PUBLIC "-//W3C//DTD SVG 20010904//EN"
 "http://www.w3.org/TR/2001/REC-SVG-20010904/DTD/svg10.dtd">
<svg version="1.0" xmlns="http://www.w3.org/2000/svg"
 width="1280.000000pt" height="1213.000000pt" viewBox="0 0 1280.000000 1213.000000"
 preserveAspectRatio="xMidYMid meet">
<metadata>
Created by potrace 1.15, written by Peter Selinger 2001-2017
</metadata>
<g transform="translate(0.000000,1213.000000) scale(0.100000,-0.100000)"
 stroke="none" fill="currentColor">
<path d="M6810 12124 c-350 -23 -757 -98 -1190 -219 -131 -37 -130 -37 -80
-47 34 -8 58 -6 101 6 218 60 539 38 874 -60 318 -94 689 -275 953 -465 491
-354 767 -739 812 -1130 18 -163 -3 -283 -80 -449 -51 -111 -64 -180 -56 -300
9 -134 42 -244 97 -321 l22 -31 -1061 -1061 -1061 -1061 -58 55 c-149 139
-599 564 -693 654 -58 55 -222 210 -365 345 -454 428 -490 464 -489 485 2 22
1 18 74 340 29 127 57 250 62 275 15 68 21 97 78 345 29 127 56 246 60 265 8
36 68 297 121 530 17 74 32 140 33 147 0 6 -165 119 -369 250 -483 312 -1813
1178 -1935 1260 l-95 63 -347 -347 -348 -348 704 -705 c687 -688 703 -706 695
-735 -9 -36 -26 -97 -40 -142 -19 -67 -29 -104 -37 -135 -5 -18 -48 -171 -97
-339 l-87 -307 -477 -136 -476 -136 -705 705 -705 705 -317 -317 c-174 -175
-318 -325 -320 -334 -2 -9 72 -122 163 -250 91 -129 294 -414 451 -634 156
-220 443 -629 638 -910 194 -280 357 -514 361 -519 6 -7 187 23 524 89 39 8
144 28 235 45 91 17 185 35 210 40 25 5 119 23 210 40 91 17 185 35 210 40 25
5 119 23 210 40 91 17 197 38 237 46 40 7 74 14 76 14 2 0 62 -62 132 -137 71
-76 226 -241 345 -368 608 -646 700 -745 700 -754 0 -5 -154 -156 -342 -337
-189 -181 -406 -389 -483 -464 -77 -74 -297 -286 -490 -470 -192 -184 -413
-396 -490 -470 -77 -74 -300 -288 -495 -475 -575 -551 -836 -801 -990 -950
-80 -77 -338 -325 -575 -552 -236 -226 -446 -434 -466 -461 -104 -138 -134
-283 -88 -423 52 -158 84 -196 618 -732 526 -529 578 -574 739 -636 114 -44
165 -54 272 -53 135 0 244 42 343 131 40 36 461 478 2551 2681 144 151 394
414 556 585 609 642 817 861 859 908 24 26 47 47 51 47 5 0 107 -105 227 -232
120 -128 286 -305 369 -393 83 -88 262 -279 399 -425 267 -284 1376 -1465
1640 -1745 88 -94 405 -431 703 -750 299 -319 579 -615 623 -657 138 -134 247
-209 391 -267 131 -53 201 -66 358 -66 135 0 174 7 295 47 361 122 643 456
711 842 47 270 -38 555 -230 762 -57 62 -479 465 -1051 1004 -49 46 -135 127
-190 180 -55 53 -219 208 -365 345 -146 137 -312 295 -370 350 -58 55 -222
210 -365 345 -143 135 -307 290 -365 345 -58 55 -222 210 -365 345 -143 135
-307 290 -365 345 -58 55 -224 212 -370 350 -146 137 -285 270 -310 295 -25
25 -147 141 -272 258 -125 117 -230 217 -234 223 -4 7 424 442 1042 1060
l1048 1048 26 -23 c37 -34 118 -89 181 -125 178 -99 363 -116 639 -55 51 11
102 15 160 11 238 -13 404 -136 726 -538 l142 -176 -92 -94 c-136 -142 -184
-256 -173 -414 16 -223 148 -410 359 -510 178 -84 380 -69 526 39 26 19 259
248 518 508 411 413 475 481 502 536 42 85 56 159 49 262 -9 141 -60 251 -168
365 -119 125 -252 185 -408 185 -98 0 -162 -15 -241 -55 l-54 -28 -39 44 c-70
81 -203 263 -258 354 -29 49 -97 187 -150 306 -110 245 -158 334 -270 499
-162 239 -251 340 -773 875 -1051 1076 -1168 1194 -1313 1311 -440 360 -931
578 -1488 663 -38 6 -101 16 -140 21 -70 11 -580 21 -685 14z m4263 -10685
c133 -20 266 -104 332 -209 90 -144 94 -341 9 -486 -133 -228 -448 -296 -667
-146 -62 43 -84 77 -107 168 -64 249 32 566 194 640 29 13 76 28 106 33 30 5
56 9 58 10 2 0 36 -4 75 -10z"/>
</g>
</svg>
